#Comment line ignore any data following # character 
#Hierarchical Translation and Rotation (.htr) file 
[Header]	
#Header keywords are followed by a single value 
FileType HTR		#Single word string
DataType HTRS		#Translation followed by rotation and scale data
FileVersion 1		#integer
NumSegments 84		#integer
NumFrames 2		#integer
DataFrameRate 30		#integer, data frame rate in this file
EulerRotationOrder ZYX
CalibrationUnits mm
RotationUnits Degrees
GlobalAxisofGravity Y
BoneLengthAxis Y
ScaleFactor 1.00
[SegmentNames&Hierarchy]
#CHILD	PARENT
MASTER GLOBAL
root MASTER
chest root
L_mid_tent01 root
R_mid_tent01 root
spine01 root
Bip01_Neck chest
L_humerus chest
R_humerus chest
weapon_bone chest
Bip01_Head Bip01_Neck
eye_left_bone Bip01_Head
eye_right_bone Bip01_Head
L_forearm L_humerus
L_front_hand L_forearm
L_weapon_bone L_forearm
L_front_hand01_01 L_front_hand
L_front_hand02_01 L_front_hand
L_front_hand03_01 L_front_hand
L_front_hand01_02 L_front_hand01_01
L_front_hand02_02 L_front_hand02_01
L_front_hand03_02 L_front_hand03_01
R_forearm R_humerus
R_front_hand R_forearm
R_weapon_bone R_forearm
R_front_hand01_01 R_front_hand
R_front_hand02_01 R_front_hand
R_front_hand03_01 R_front_hand
R_front_hand01_02 R_front_hand01_01
R_front_hand02_02 R_front_hand02_01
R_front_hand03_02 R_front_hand03_01
null_rope01_connect L_mid_tent01
Rope1_Seg01 null_rope01_connect
Rope1_Seg02 Rope1_Seg01
Rope1_Seg03 Rope1_Seg02
Rope1_Seg04 Rope1_Seg03
Rope1_Seg05 Rope1_Seg04
Rope1_Seg06 Rope1_Seg05
Rope1_Seg07 Rope1_Seg06
Rope1_Seg09 Rope1_Seg07
L_mid_hand01 Rope1_Seg09
L_mid_hand02 Rope1_Seg09
L_mid_hand03 Rope1_Seg09
null_rope02_connect R_mid_tent01
Rope2_Seg01 null_rope02_connect
Rope2_Seg02 Rope2_Seg01
Rope2_Seg03 Rope2_Seg02
Rope2_Seg04 Rope2_Seg03
Rope2_Seg05 Rope2_Seg04
Rope2_Seg06 Rope2_Seg05
Rope2_Seg07 Rope2_Seg06
Rope2_Seg09 Rope2_Seg07
R_mid_hand01 Rope2_Seg09
R_mid_hand02 Rope2_Seg09
R_mid_hand03 Rope2_Seg09
spine02 spine01
spine03 spine02
pelvis spine03
null_rope03_connect pelvis
null_rope04_connect pelvis
Rope3_Seg01 null_rope03_connect
Rope3_Seg02 Rope3_Seg01
Rope3_Seg03 Rope3_Seg02
Rope3_Seg04 Rope3_Seg03
Rope3_Seg05 Rope3_Seg04
Rope3_Seg06 Rope3_Seg05
Rope3_Seg07 Rope3_Seg06
Rope3_Seg08 Rope3_Seg07
Rope3_Seg09 Rope3_Seg08
R_rear_hand01 Rope3_Seg09
R_rear_hand02 Rope3_Seg09
R_rear_hand03 Rope3_Seg09
Rope4_Seg01 null_rope04_connect
Rope4_Seg02 Rope4_Seg01
Rope4_Seg03 Rope4_Seg02
Rope4_Seg04 Rope4_Seg03
Rope4_Seg05 Rope4_Seg04
Rope4_Seg06 Rope4_Seg05
Rope4_Seg07 Rope4_Seg06
Rope4_Seg08 Rope4_Seg07
Rope4_Seg09 Rope4_Seg08
L_rear_hand01 Rope4_Seg09
L_rear_hand02 Rope4_Seg09
L_rear_hand03 Rope4_Seg09
[BasePosition]
#SegmentName Tx, Ty, Tz, Rx, Ry, Rz, BoneLength
MASTER 0.000000 0.000000 0.000000 -90.000000 0.000000 0.000000 10.000000 
root 0.000000 0.000000 0.000000 0.000000 0.000000 0.000000 10.000000 
chest 0.000000 0.000000 0.000000 0.000000 0.000000 0.000000 10.000000 
L_mid_tent01 0.000000 0.000000 0.000000 0.000000 0.000000 0.000000 10.000000 
R_mid_tent01 0.000000 0.000000 0.000000 0.000000 0.000000 0.000000 10.000000 
spine01 0.000000 0.000000 0.000000 0.000000 0.000000 0.000000 10.000000 
Bip01_Neck 0.000000 0.000000 0.000000 0.000000 0.000000 0.000000 10.000000 
L_humerus 0.000000 0.000000 0.000000 0.000000 0.000000 0.000000 10.000000 
R_humerus 0.000000 0.000000 0.000000 0.000000 0.000000 0.000000 10.000000 
weapon_bone 0.000000 0.000000 0.000000 0.000000 0.000000 0.000000 10.000000 
Bip01_Head 0.000000 0.000000 0.000000 0.000000 0.000000 0.000000 10.000000 
eye_left_bone 0.000000 0.000000 0.000000 0.000000 0.000000 0.000000 10.000000 
eye_right_bone 0.000000 0.000000 0.000000 0.000000 0.000000 0.000000 10.000000 
L_forearm 0.000000 0.000000 0.000000 0.000000 0.000000 0.000000 10.000000 
L_front_hand 0.000000 0.000000 0.000000 0.000000 0.000000 0.000000 10.000000 
L_weapon_bone 0.000000 0.000000 0.000000 0.000000 0.000000 0.000000 10.000000 
L_front_hand01_01 0.000000 0.000000 0.000000 0.000000 0.000000 0.000000 10.000000 
L_front_hand02_01 0.000000 0.000000 0.000000 0.000000 0.000000 0.000000 10.000000 
L_front_hand03_01 0.000000 0.000000 0.000000 0.000000 0.000000 0.000000 10.000000 
L_front_hand01_02 0.000000 0.000000 0.000000 0.000000 0.000000 0.000000 10.000000 
L_front_hand02_02 0.000000 0.000000 0.000000 0.000000 0.000000 0.000000 10.000000 
L_front_hand03_02 0.000000 0.000000 0.000000 0.000000 0.000000 0.000000 10.000000 
R_forearm 0.000000 0.000000 0.000000 0.000000 0.000000 0.000000 10.000000 
R_front_hand 0.000000 0.000000 0.000000 0.000000 0.000000 0.000000 10.000000 
R_weapon_bone 0.000000 0.000000 0.000000 0.000000 0.000000 0.000000 10.000000 
R_front_hand01_01 0.000000 0.000000 0.000000 0.000000 0.000000 0.000000 10.000000 
R_front_hand02_01 0.000000 0.000000 0.000000 0.000000 0.000000 0.000000 10.000000 
R_front_hand03_01 0.000000 0.000000 0.000000 0.000000 0.000000 0.000000 10.000000 
R_front_hand01_02 0.000000 0.000000 0.000000 0.000000 0.000000 0.000000 10.000000 
R_front_hand02_02 0.000000 0.000000 0.000000 0.000000 0.000000 0.000000 10.000000 
R_front_hand03_02 0.000000 0.000000 0.000000 0.000000 0.000000 0.000000 10.000000 
null_rope01_connect 0.000000 0.000000 0.000000 0.000000 0.000000 0.000000 10.000000 
Rope1_Seg01 0.000000 0.000000 0.000000 0.000000 0.000000 0.000000 10.000000 
Rope1_Seg02 0.000000 0.000000 0.000000 0.000000 0.000000 0.000000 10.000000 
Rope1_Seg03 0.000000 0.000000 0.000000 0.000000 0.000000 0.000000 10.000000 
Rope1_Seg04 0.000000 0.000000 0.000000 0.000000 0.000000 0.000000 10.000000 
Rope1_Seg05 0.000000 0.000000 0.000000 0.000000 0.000000 0.000000 10.000000 
Rope1_Seg06 0.000000 0.000000 0.000000 0.000000 0.000000 0.000000 10.000000 
Rope1_Seg07 0.000000 0.000000 0.000000 0.000000 0.000000 0.000000 10.000000 
Rope1_Seg09 0.000000 0.000000 0.000000 0.000000 0.000000 0.000000 10.000000 
L_mid_hand01 0.000000 0.000000 0.000000 0.000000 0.000000 0.000000 10.000000 
L_mid_hand02 0.000000 0.000000 0.000000 0.000000 0.000000 0.000000 10.000000 
L_mid_hand03 0.000000 0.000000 0.000000 0.000000 0.000000 0.000000 10.000000 
null_rope02_connect 0.000000 0.000000 0.000000 0.000000 0.000000 0.000000 10.000000 
Rope2_Seg01 0.000000 0.000000 0.000000 0.000000 0.000000 0.000000 10.000000 
Rope2_Seg02 0.000000 0.000000 0.000000 0.000000 0.000000 0.000000 10.000000 
Rope2_Seg03 0.000000 0.000000 0.000000 0.000000 0.000000 0.000000 10.000000 
Rope2_Seg04 0.000000 0.000000 0.000000 0.000000 0.000000 0.000000 10.000000 
Rope2_Seg05 0.000000 0.000000 0.000000 0.000000 0.000000 0.000000 10.000000 
Rope2_Seg06 0.000000 0.000000 0.000000 0.000000 0.000000 0.000000 10.000000 
Rope2_Seg07 0.000000 0.000000 0.000000 0.000000 0.000000 0.000000 10.000000 
Rope2_Seg09 0.000000 0.000000 0.000000 0.000000 0.000000 0.000000 10.000000 
R_mid_hand01 0.000000 0.000000 0.000000 0.000000 0.000000 0.000000 10.000000 
R_mid_hand02 0.000000 0.000000 0.000000 0.000000 0.000000 0.000000 10.000000 
R_mid_hand03 0.000000 0.000000 0.000000 0.000000 0.000000 0.000000 10.000000 
spine02 0.000000 0.000000 0.000000 0.000000 0.000000 0.000000 10.000000 
spine03 0.000000 0.000000 0.000000 0.000000 0.000000 0.000000 10.000000 
pelvis 0.000000 0.000000 0.000000 0.000000 0.000000 0.000000 10.000000 
null_rope03_connect 0.000000 0.000000 0.000000 0.000000 0.000000 0.000000 10.000000 
null_rope04_connect 0.000000 0.000000 0.000000 0.000000 0.000000 0.000000 10.000000 
Rope3_Seg01 0.000000 0.000000 0.000000 0.000000 0.000000 0.000000 10.000000 
Rope3_Seg02 0.000000 0.000000 0.000000 0.000000 0.000000 0.000000 10.000000 
Rope3_Seg03 0.000000 0.000000 0.000000 0.000000 0.000000 0.000000 10.000000 
Rope3_Seg04 0.000000 0.000000 0.000000 0.000000 0.000000 0.000000 10.000000 
Rope3_Seg05 0.000000 0.000000 0.000000 0.000000 0.000000 0.000000 10.000000 
Rope3_Seg06 0.000000 0.000000 0.000000 0.000000 0.000000 0.000000 10.000000 
Rope3_Seg07 0.000000 0.000000 0.000000 0.000000 0.000000 0.000000 10.000000 
Rope3_Seg08 0.000000 0.000000 0.000000 0.000000 0.000000 0.000000 10.000000 
Rope3_Seg09 0.000000 0.000000 0.000000 0.000000 0.000000 0.000000 10.000000 
R_rear_hand01 0.000000 0.000000 0.000000 0.000000 0.000000 0.000000 10.000000 
R_rear_hand02 0.000000 0.000000 0.000000 0.000000 0.000000 0.000000 10.000000 
R_rear_hand03 0.000000 0.000000 0.000000 0.000000 0.000000 0.000000 10.000000 
Rope4_Seg01 0.000000 0.000000 0.000000 0.000000 0.000000 0.000000 10.000000 
Rope4_Seg02 0.000000 0.000000 0.000000 0.000000 0.000000 0.000000 10.000000 
Rope4_Seg03 0.000000 0.000000 0.000000 0.000000 0.000000 0.000000 10.000000 
Rope4_Seg04 0.000000 0.000000 0.000000 0.000000 0.000000 0.000000 10.000000 
Rope4_Seg05 0.000000 0.000000 0.000000 0.000000 0.000000 0.000000 10.000000 
Rope4_Seg06 0.000000 0.000000 0.000000 0.000000 0.000000 0.000000 10.000000 
Rope4_Seg07 0.000000 0.000000 0.000000 0.000000 0.000000 0.000000 10.000000 
Rope4_Seg08 0.000000 0.000000 0.000000 0.000000 0.000000 0.000000 10.000000 
Rope4_Seg09 0.000000 0.000000 0.000000 0.000000 0.000000 0.000000 10.000000 
L_rear_hand01 0.000000 0.000000 0.000000 0.000000 0.000000 0.000000 10.000000 
L_rear_hand02 0.000000 0.000000 0.000000 0.000000 0.000000 0.000000 10.000000 
L_rear_hand03 0.000000 0.000000 0.000000 0.000000 0.000000 0.000000 10.000000 
#Beginning of Data. Separated by tabs
#Fr	Tx	Ty	Tz	Rx	Ry	Rz	SF
[MASTER]
12 0.000005 62.822109 0.000000 0.001660 0.001660 0.001660 62.822113
13 0.000005 62.822109 0.000000 0.001660 0.001660 0.001660 62.822113
[root]
12 -16.502295 -62.822117 1500.000000 -60.968243 -24.101362 -96.601234 1501.405640
13 -16.502295 -62.822117 1500.000000 -58.787945 -23.844807 -97.060913 1501.405640
[chest]
12 -84.512650 -34.090519 0.000000 12.227828 -14.246614 171.352585 91.129311
13 -84.512650 -34.090519 0.000000 13.343687 -15.503189 170.540695 91.129311
[L_mid_tent01]
12 27.299549 22.177462 -249.917984 7.798921 81.704880 61.515320 252.380859
13 27.299545 22.177467 -249.917984 15.745982 85.793365 71.500412 252.380859
[R_mid_tent01]
12 23.228794 24.509907 226.238495 -66.310066 -63.744366 -25.233295 228.744751
13 23.228794 24.509907 226.238495 -62.141716 -60.416058 -28.670368 228.744751
[spine01]
12 -0.361383 -0.195265 0.000000 0.051940 0.391519 12.479852 0.410763
13 -0.361383 -0.195265 0.000000 -0.042408 0.379231 12.185985 0.410763
[Bip01_Neck]
12 165.484543 71.581718 0.000119 175.896118 1.177290 24.871183 180.302734
13 165.484543 71.581718 0.000119 175.896118 1.177290 24.871183 180.302734
[L_humerus]
12 -13.983130 -135.272980 -120.471481 -164.939117 79.117294 -76.745567 181.680161
13 -13.983130 -135.272980 -120.471481 -170.514862 79.786232 -81.659172 181.680161
[R_humerus]
12 -13.983309 -135.273102 125.287651 -146.892776 -65.162598 -115.253708 184.909012
13 -13.983309 -135.273102 125.287651 -148.508820 -65.943726 -113.057205 184.909012
[weapon_bone]
12 235.964890 -300.705902 0.000000 0.000000 -89.951546 -128.212341 382.234833
13 235.964890 -300.705902 0.000000 0.000000 -89.951546 -128.212341 382.234833
[Bip01_Head]
12 261.355835 108.959442 -2.864221 20.414797 5.845447 -62.454628 283.173523
13 261.355835 108.959450 -2.864221 22.317905 5.845391 -62.457287 283.173523
[eye_left_bone]
12 -24.626970 125.451866 -64.772606 0.000000 -90.000000 -99.840431 143.318359
13 -24.626970 125.451866 -64.772606 0.000000 -90.000000 -99.840431 143.318359
[eye_right_bone]
12 -24.626970 125.451866 64.327362 0.000000 -89.960434 80.159386 143.117676
13 -24.626970 125.451866 64.327362 0.000000 -89.960434 80.159386 143.117676
[L_forearm]
12 322.776093 0.000000 -0.000119 0.000300 0.002328 -75.297401 322.776093
13 322.776093 0.000000 -0.000119 0.000260 0.002333 -77.271988 322.776093
[L_front_hand]
12 241.149185 -0.042021 -3.300071 -179.374023 -2.181477 -7.440388 241.171753
13 241.149185 -0.042021 -3.300071 -179.317932 -2.161319 -8.874559 241.171753
[L_weapon_bone]
12 156.183838 0.000000 0.000000 0.001970 0.001276 24.151815 156.183838
13 156.183838 0.000000 0.000000 0.001923 0.001349 19.912832 156.183838
[L_front_hand01_01]
12 86.095154 20.947098 -0.655860 0.287225 -0.527205 9.085317 88.609184
13 86.095154 20.947098 -0.655860 0.242199 -0.547033 14.276278 88.609184
[L_front_hand02_01]
12 86.935165 -11.437475 24.513514 117.232086 -8.582623 -4.739314 91.046425
13 86.935165 -11.437475 24.513514 117.693802 -13.188565 -7.177018 91.046425
[L_front_hand03_01]
12 86.637497 -14.123976 -20.424902 -118.575775 7.397606 -6.682359 90.126129
13 86.637497 -14.123976 -20.424902 -119.007195 11.947201 -9.214315 90.126129
[L_front_hand01_02]
12 71.020905 -0.000179 0.000030 0.001032 0.002108 -37.828732 71.020905
13 71.020905 -0.000179 0.000030 0.000914 0.002162 -44.160267 71.020905
[L_front_hand02_02]
12 71.020927 -0.000119 0.000060 0.001032 0.002108 -37.828732 71.020927
13 71.020927 -0.000119 0.000060 0.000914 0.002162 -44.160267 71.020927
[L_front_hand03_02]
12 71.020905 -0.000060 0.000060 0.001032 0.002108 -37.828732 71.020905
13 71.020905 -0.000060 0.000060 0.000914 0.002162 -44.160267 71.020905
[R_forearm]
12 322.776428 -0.000060 0.000030 0.199634 -0.075778 -69.812592 322.776428
13 322.776428 -0.000060 0.000030 0.199694 -0.075621 -69.903091 322.776428
[R_front_hand]
12 238.847015 -0.006795 2.210259 -1.625255 0.590492 -58.806774 238.857239
13 238.847015 -0.006795 2.210259 -1.703286 0.297775 -68.812134 238.857239
[R_weapon_bone]
12 155.664093 0.002503 -0.000030 0.002873 0.002300 -130.960754 155.664078
13 155.664093 0.002503 -0.000030 0.002937 0.002218 -127.721344 155.664078
[R_front_hand01_01]
12 87.624611 14.231146 22.918642 -117.244286 -8.712517 4.915390 91.683487
13 87.624611 14.231146 22.918642 -117.710854 -13.318580 7.356099 91.683487
[R_front_hand02_01]
12 89.356956 14.367283 -19.491137 118.623459 7.800704 7.144063 92.579636
13 89.356956 14.367283 -19.491137 119.067902 12.346443 9.687583 92.579636
[R_front_hand03_01]
12 87.286232 -22.307278 -0.143439 -0.324334 -0.318006 -9.474348 90.091743
13 87.286232 -22.307278 -0.143439 -0.292996 -0.345185 -14.661992 90.091743
[R_front_hand01_02]
12 71.020905 0.000060 0.000119 0.002108 0.001032 37.832237 71.020905
13 71.020905 0.000060 0.000119 0.002162 0.000914 44.163845 71.020905
[R_front_hand02_02]
12 71.020844 -0.000030 -0.000119 0.002108 0.001032 37.832237 71.020836
13 71.020844 -0.000030 -0.000119 0.002162 0.000914 44.163845 71.020836
[R_front_hand03_02]
12 71.020905 0.000000 0.000030 0.002108 0.001032 37.832237 71.020905
13 71.020905 0.000000 0.000030 0.002162 0.000914 44.163845 71.020905
[null_rope01_connect]
12 328.732483 0.000000 -0.000238 -111.510605 -24.665770 156.485016 328.732483
13 328.732483 0.000000 -0.000238 -114.617363 -22.791994 155.965851 328.732483
[Rope1_Seg01]
12 0.000000 0.000000 0.000000 102.077538 -9.965627 -169.993698 0.000000
13 0.000000 0.000000 0.000000 99.872375 -34.484375 -178.277374 0.000000
[Rope1_Seg02]
12 139.999863 -0.000179 0.000000 24.995291 -26.055374 -25.722212 139.999863
13 139.999863 -0.000179 0.000000 2.110108 -9.697565 -5.983064 139.999863
[Rope1_Seg03]
12 139.999924 0.000060 -0.000060 27.002419 -43.984913 -32.043232 139.999924
13 139.999924 0.000060 -0.000060 11.355638 -36.536339 -27.503458 139.999924
[Rope1_Seg04]
12 139.999924 -0.000060 -0.000119 0.215378 -18.485462 -2.082875 139.999924
13 139.999924 -0.000060 -0.000119 11.456957 -43.295109 -39.643703 139.999924
[Rope1_Seg05]
12 139.999832 0.000119 -0.000060 -2.807451 -15.813452 6.678048 139.999832
13 139.999832 0.000119 -0.000060 -2.325090 -15.018731 -2.032169 139.999832
[Rope1_Seg06]
12 139.999954 0.000119 -0.000060 -4.412722 -14.146294 6.836568 139.999954
13 139.999954 0.000119 -0.000060 -2.905545 -11.956040 4.331009 139.999954
[Rope1_Seg07]
12 139.999985 0.000060 0.000000 -3.294289 -6.770312 1.767795 139.999985
13 139.999985 0.000060 0.000000 -2.620967 -6.784941 0.860766 139.999985
[Rope1_Seg09]
12 121.602913 0.000119 -0.000089 -89.793175 -1.359789 0.847147 121.602913
13 121.602913 0.000119 -0.000089 -89.793175 -1.359789 0.847147 121.602913
[L_mid_hand01]
12 103.859421 1.038730 8.195221 104.355774 -0.956058 -0.777194 104.187431
13 103.859421 1.038730 8.195221 104.366898 -2.421582 -1.149035 104.187431
[L_mid_hand02]
12 105.572853 -4.139662 -10.864139 -135.680969 4.839560 -4.340801 106.211075
13 105.572853 -4.139662 -10.864139 -135.786102 5.891692 -5.427641 106.211075
[L_mid_hand03]
12 104.641464 17.579376 -3.913581 -18.765802 0.105102 4.206013 106.179977
13 104.641464 17.579376 -3.913581 -18.755919 0.592752 5.640778 106.179977
[null_rope02_connect]
12 328.732849 0.000179 -0.000119 -146.787262 -35.785076 -33.782402 328.732849
13 328.732849 0.000179 -0.000119 -145.211182 -40.701694 -37.674934 328.732849
[Rope2_Seg01]
12 -0.000065 0.000139 0.000106 54.554878 -53.167549 -73.873093 0.000187
13 -0.000064 0.000140 0.000102 44.282745 -47.582794 -62.296299 0.000184
[Rope2_Seg02]
12 139.999741 -0.000060 -0.000119 -2.859967 10.773013 9.333652 139.999756
13 139.999741 -0.000060 -0.000119 -5.052339 10.306121 10.013368 139.999756
[Rope2_Seg03]
12 140.000107 0.000030 0.000000 -6.015293 14.406152 14.460526 140.000107
13 140.000107 0.000030 0.000000 -8.206391 11.916524 14.403599 140.000107
[Rope2_Seg04]
12 139.999802 0.000000 -0.000060 -9.202155 13.395315 18.729750 139.999802
13 139.999802 0.000000 -0.000060 -9.707994 8.949944 17.483814 139.999802
[Rope2_Seg05]
12 139.999985 -0.000060 0.000119 -6.890967 6.378986 13.061131 139.999985
13 139.999985 -0.000060 0.000119 -6.376316 4.276514 12.124770 139.999985
[Rope2_Seg06]
12 139.999893 -0.000030 -0.000119 -4.485178 3.872949 8.345968 139.999893
13 139.999893 -0.000030 -0.000119 -4.451115 3.773159 8.395353 139.999893
[Rope2_Seg07]
12 139.999893 0.000060 -0.000060 -3.970988 3.568131 7.304754 139.999893
13 139.999893 0.000060 -0.000060 -4.167548 4.050693 7.649807 139.999893
[Rope2_Seg09]
12 121.338966 0.000089 -0.000060 33.793236 -1.359788 -0.847141 121.338966
13 121.338966 0.000089 -0.000060 33.793236 -1.359788 -0.847141 121.338966
[R_mid_hand01]
12 104.680779 11.144459 -10.335981 -47.275349 4.744051 7.096739 105.778534
13 104.680779 11.144459 -10.335981 -47.166042 5.964279 8.233274 105.778534
[R_mid_hand02]
12 104.070427 2.443552 8.231699 75.589325 -4.596537 1.716218 104.424065
13 104.070427 2.443552 8.231699 75.550705 -6.213403 2.132297 104.424065
[R_mid_hand03]
12 106.028137 -11.221827 -5.996406 -164.493469 3.146489 -8.476594 106.788818
13 106.028137 -11.221827 -5.996406 -164.587372 3.590657 -10.082835 106.788818
[spine02]
12 129.756927 0.001550 0.000119 -0.118992 -4.084412 -6.200530 129.756927
13 129.756927 0.001550 0.000119 -0.101943 -4.061830 -6.436500 129.756927
[spine03]
12 78.825089 0.050441 -2.836140 1.626742 0.835763 9.759624 78.876106
13 78.859612 0.044458 -2.499027 1.716830 0.337556 11.618974 78.899208
[pelvis]
12 169.435242 0.051022 0.000000 53.634315 9.351143 -2.801812 169.435257
13 169.435242 0.051022 0.000000 26.454416 5.721058 -4.275289 169.435257
[null_rope03_connect]
12 -1.257226 -2.466202 137.391083 8.405472 -8.174259 95.936516 137.418976
13 -1.257226 -2.466202 137.391083 9.637928 -33.447979 92.783134 137.418976
[null_rope04_connect]
12 -1.259640 -2.480268 -137.844437 8.405472 -8.174259 95.936516 137.872513
13 -1.259640 -2.480268 -137.844437 9.637928 -33.447979 92.783134 137.872513
[Rope3_Seg01]
12 0.000000 0.000000 0.000000 -118.018570 -45.412861 -102.281685 0.000000
13 0.000000 0.000000 0.000000 -132.774429 -49.514492 -82.300789 0.000000
[Rope3_Seg02]
12 139.999924 -0.000119 0.000060 -3.731898 25.873526 -23.224854 139.999924
13 139.999924 -0.000119 0.000060 -11.937297 18.450369 -26.207092 139.999924
[Rope3_Seg03]
12 139.999924 -0.000119 0.000119 -2.582403 24.966106 -15.232427 139.999924
13 139.999924 -0.000119 0.000119 -10.893106 20.929482 -14.965088 139.999924
[Rope3_Seg04]
12 139.999924 0.000119 0.000000 -1.344590 10.491350 -13.457986 139.999924
13 139.999924 0.000119 0.000000 -7.009736 12.190190 -12.503359 139.999924
[Rope3_Seg05]
12 139.999924 -0.000238 0.000060 -4.456417 5.779683 -22.849258 139.999924
13 139.999924 -0.000238 0.000060 -13.413980 12.737507 -22.614464 139.999924
[Rope3_Seg06]
12 139.999893 -0.000119 -0.000060 -5.599341 4.707592 -14.933103 139.999893
13 139.999893 -0.000119 -0.000060 -10.238264 10.666295 -12.500809 139.999893
[Rope3_Seg07]
12 139.999771 0.000060 -0.000119 -3.486790 3.414463 -6.764025 139.999771
13 139.999771 0.000060 -0.000119 -4.463763 6.093936 -4.534275 139.999771
[Rope3_Seg08]
12 139.999985 -0.000060 0.000000 -1.941953 2.122197 -3.661250 139.999985
13 139.999985 -0.000060 0.000000 -2.110989 3.523302 -2.230988 139.999985
[Rope3_Seg09]
12 90.185997 -0.000179 -0.000060 89.793228 -1.359877 -0.847183 90.185997
13 90.185997 -0.000179 -0.000060 89.793228 -1.359877 -0.847183 90.185997
[R_rear_hand01]
12 103.366196 -6.073594 -10.757982 -156.894989 8.887354 -9.307902 104.101845
13 103.366196 -6.073594 -10.757982 -156.049316 6.070421 -2.795873 104.101845
[R_rear_hand02]
12 100.509819 12.039542 -7.992327 -38.307755 6.345307 10.983821 101.543350
13 100.509819 12.039542 -7.992327 -38.708435 1.958054 5.461189 101.543350
[R_rear_hand03]
12 101.539970 5.215704 5.435467 84.234985 -9.371894 4.804685 101.819031
13 101.539970 5.215704 5.435467 84.307625 -2.361037 4.099038 101.819031
[Rope4_Seg01]
12 -0.000010 -0.000065 -0.000106 53.201393 35.231552 -95.422829 0.000125
13 -0.000010 -0.000064 -0.000102 43.736286 28.454098 -112.584770 0.000120
[Rope4_Seg02]
12 139.999985 0.000060 0.000119 2.639383 12.181611 -2.557698 139.999985
13 139.999985 0.000060 0.000119 -0.668003 11.370030 -11.205781 139.999985
[Rope4_Seg03]
12 139.999924 0.000000 -0.000238 10.244503 23.736967 -5.414387 139.999924
13 139.999924 0.000000 -0.000238 1.054485 21.315516 -17.346954 139.999924
[Rope4_Seg04]
12 139.999985 0.000000 0.000119 27.404556 28.240173 -5.552134 139.999985
13 139.999985 0.000000 0.000119 5.383733 18.181627 -14.398802 139.999985
[Rope4_Seg05]
12 139.999802 -0.000060 -0.000119 32.461437 7.002392 -27.706470 139.999802
13 139.999802 -0.000060 -0.000119 8.524682 5.909909 -45.950077 139.999802
[Rope4_Seg06]
12 139.999924 0.000000 0.000060 18.550922 -24.508419 -41.634796 139.999924
13 139.999924 0.000000 0.000060 -1.982050 -3.809061 -35.969173 139.999924
[Rope4_Seg07]
12 139.999802 0.000000 0.000000 0.644040 -10.388860 -13.221300 139.999802
13 139.999802 0.000000 0.000000 -2.578492 0.178898 -9.307861 139.999802
[Rope4_Seg08]
12 139.999924 0.000000 0.000119 -2.094659 -3.729266 -4.984838 139.999924
13 139.999924 0.000000 0.000119 -2.873555 0.264705 -4.117019 139.999924
[Rope4_Seg09]
12 90.185791 0.000060 0.000060 -135.617828 2.228885 0.850567 90.185791
13 90.185791 0.000060 0.000060 -135.617828 2.228885 0.850567 90.185791
[L_rear_hand01]
12 101.696655 -8.392275 -7.654577 -38.517063 -4.590807 171.240036 102.329041
13 101.696655 -8.392275 -7.654577 -38.746338 0.246093 177.290207 102.329041
[L_rear_hand02]
12 102.726799 -1.568258 5.773216 84.275444 6.555049 175.481003 102.900848
13 102.726799 -1.568258 5.773216 84.315163 -1.142792 176.247437 102.900848
[L_rear_hand03]
12 104.552910 9.721220 -10.420293 -156.517609 -7.767868 -173.313843 105.519653
13 104.552910 9.721220 -10.420293 -155.747955 -4.630847 179.564758 105.519653
